<?xml version="1.0" encoding="UTF-8"?>
<svg width="210mm" height="297mm" inkscape:version="1.0 (4035a4f, 2020-05-01)" sodipodi:docname="lg_black_white.svg" version="1.1" viewBox="0 0 210 297" xmlns="http://www.w3.org/2000/svg" xmlns:cc="http://creativecommons.org/ns#" xmlns:dc="http://purl.org/dc/elements/1.1/" xmlns:inkscape="http://www.inkscape.org/namespaces/inkscape" xmlns:rdf="http://www.w3.org/1999/02/22-rdf-syntax-ns#" xmlns:sodipodi="http://sodipodi.sourceforge.net/DTD/sodipodi-0.dtd">
 <sodipodi:namedview id="base" bordercolor="#666666" borderopacity="1.0" inkscape:current-layer="layer1" inkscape:cx="1224.8848" inkscape:cy="632.42047" inkscape:document-rotation="0" inkscape:document-units="mm" inkscape:pageopacity="0.0" inkscape:pageshadow="2" inkscape:window-height="1120" inkscape:window-maximized="0" inkscape:window-width="1792" inkscape:window-x="0" inkscape:window-y="0" inkscape:zoom="0.49497475" pagecolor="#ffffff" showgrid="false"/>
 <metadata>
  <rdf:RDF>
   <cc:Work rdf:about="">
    <dc:format>image/svg+xml</dc:format>
    <dc:type rdf:resource="http://purl.org/dc/dcmitype/StillImage"/>
    <dc:title/>
   </cc:Work>
  </rdf:RDF>
 </metadata>
 <g inkscape:groupmode="layer" inkscape:label="Layer 1">
  <g transform="matrix(.019441 0 0 -.019441 24.992 168.45)">
   <path d="m506.68 3134.9h1670.5c277.03 0 500.04-223.01 500.04-500.04v-1632.6c0-277-223.01-500.04-500.04-500.04h-1670.5c-277.03 0-500.04 223.04-500.04 500.04v1632.6c0 277.03 223.01 500.04 500.04 500.04z" fill="#fff"/>
   <path d="m816.99 1582.4c-79.328 5.7-137.15 31.33-189.37 83.99-36.141 36.4-64.301 90.89-78.949 152.61-5.152 21.68-5.473 33.95-6.723 253.13-1.289 230.19 1.371 374.96 7.352 401.8 13.469 60.35 37.148 105.58 74.719 142.81 40.941 40.51 97.968 69.29 165.9 83.67 25.348 5.35 35.699 5.47 643.79 7.07l618.01 1.64 0.74 49.45 0.7 49.46 73.05-86.53c40.2-47.61 72.66-87.69 72.23-89.06-0.47-1.37-33.95-42.66-74.38-91.72l-73.55-89.29-0.74 52.38-0.75 52.34-604.61-1.68c-332.53-0.94-611.25-2.34-619.37-3.16-35.738-3.52-67.34-17.97-90.82-41.41-17.418-17.42-31.289-42.85-35-64.1-6.489-37.23-13.399-493.71-8.399-556.29 4.489-56.52 14.301-83.87 39.879-111.21 15.781-16.84 33.75-28.01 58.871-36.6l20.739-7.07 707.85-2.66 128.29-147.34-75.2-1.64c-76.17-1.64-732.03-2.15-754.26-0.59z"/>
   <path d="m1048.4 1931.9 139.26 158.01h712.5s266.52-20.35 273.24-275.86c6.8-260.23 0.9-587.22 2.66-586.64 2.77-6.91-20.55-285.54-377.66-273.2-380.74 13.16-1067.1-7.149-1066.1 0l-5.36-107.15-163.39 198.24 163.39 195.51v-125.9l1100.9 2.7s155.35-26.8 179.46 115.19c24.1 141.96 0 538.36 0 538.36s11.79 155.94-198.21 152.7c-202.81-3.13-760.47 8.79-760.7 8.04z"/>
  </g>
  <text x="83.296104" y="143.15099" fill="#ffffff" font-family="Avenir" font-size="9.462px" stroke-width=".15099" style="line-height:0.25" xml:space="preserve"><tspan x="83.296104" y="143.15099" fill="#ffffff" font-family="Avenir" font-size="9.462px" stroke-width=".15099" sodipodi:role="line">Fastest way to get money!</tspan></text>
  <text x="82.378899" y="129.22919" fill="#ffffff" font-family="Avenir" font-size="11.926px" stroke-width=".1903" style="line-height:1.25" xml:space="preserve"><tspan x="82.378899" y="129.22919" fill="#ffffff" font-family="Viga" font-size="11.926px" stroke-width=".1903" sodipodi:role="line">SPEEDLIGHT MONEY</tspan></text>
 </g>
</svg>
